<?xml version="1.0" encoding="UTF-8"?>
<!DOCTYPE svg PUBLIC "-//W3C//DTD SVG 1.1//EN" "http://www.w3.org/Graphics/SVG/1.1/DTD/svg11.dtd">
<!-- Creator: CorelDRAW -->
<svg xmlns="http://www.w3.org/2000/svg" xml:space="preserve" width="1.29074in" height="0.363079in" version="1.1" style="shape-rendering:geometricPrecision; text-rendering:geometricPrecision; image-rendering:optimizeQuality; fill-rule:evenodd; clip-rule:evenodd"
viewBox="0 0 111.97 31.5"
 xmlns:xlink="http://www.w3.org/1999/xlink"
 xmlns:xodm="http://www.corel.com/coreldraw/odm/2003">
 <defs>
  <style type="text/css">
   <![CDATA[
    .fil0 {fill:white}
    .fil1 {fill:white;fill-rule:nonzero}
   ]]>
  </style>
 </defs>
 <g id="Layer_x0020_1">
  <metadata id="CorelCorpID_0Corel-Layer"/>
  <g id="_1725618479312">
   <g>
    <g>
     <g>
      <path class="fil0" d="M0.23 16.66c-1,5.27 1.24,7.3 6.41,6.41 0.9,-5.17 -1.14,-7.4 -6.41,-6.41z"/>
      <path class="fil0" d="M0.23 14.84c-1,-5.27 1.24,-7.3 6.41,-6.41 0.9,5.17 -1.14,7.4 -6.41,6.41z"/>
      <path class="fil0" d="M14.93 20.15c-0.5,2.64 -2.72,3.58 -6.53,2.91 -0.66,-3.8 0.27,-6.01 2.89,-6.52 0.16,0.87 0.57,1.7 1.24,2.37 0.68,0.68 1.52,1.09 2.4,1.24z"/>
      <path class="fil0" d="M14.93 11.35c-0.5,-2.64 -2.72,-3.58 -6.53,-2.91 -0.66,3.8 0.27,6.01 2.89,6.52 0.16,-0.87 0.57,-1.7 1.24,-2.37 0.68,-0.68 1.52,-1.09 2.4,-1.24z"/>
     </g>
     <path class="fil0" d="M9.4 15.75c-0.82,-0.44 -1.45,-1.08 -1.88,-1.91 -0.43,0.83 -1.06,1.47 -1.88,1.91 0.82,0.44 1.45,1.08 1.88,1.91 0.43,-0.83 1.06,-1.47 1.88,-1.91z"/>
    </g>
    <g>
     <g>
      <path class="fil0" d="M8.4 8.43c-0.73,3.86 0.28,5.98 2.9,6.49 0.16,-0.86 0.57,-1.67 1.23,-2.33 0.67,-0.67 1.5,-1.08 2.36,-1.24 -0.5,-2.64 -2.63,-3.65 -6.5,-2.92z"/>
      <path class="fil0" d="M8.4 6.61c-0.99,-5.27 1.24,-7.3 6.41,-6.41 0.9,5.17 -1.14,7.4 -6.41,6.41z"/>
      <path class="fil0" d="M22.99 8.43c0.73,3.86 -0.28,5.98 -2.9,6.49 -0.16,-0.86 -0.57,-1.67 -1.23,-2.33 -0.67,-0.67 -1.5,-1.08 -2.37,-1.24 0.5,-2.64 2.63,-3.65 6.5,-2.92z"/>
      <path class="fil0" d="M22.99 6.61c0.99,-5.27 -1.24,-7.3 -6.41,-6.41 -0.9,5.17 1.14,7.4 6.41,6.41z"/>
     </g>
     <path class="fil0" d="M17.58 7.52c-0.82,-0.44 -1.45,-1.08 -1.88,-1.91 -0.43,0.83 -1.06,1.47 -1.88,1.91 0.82,0.44 1.45,1.08 1.88,1.91 0.43,-0.83 1.06,-1.47 1.88,-1.91z"/>
    </g>
    <g>
     <g>
      <path class="fil0" d="M8.4 24.88c-0.99,5.27 1.24,7.3 6.41,6.41 0.9,-5.17 -1.14,-7.4 -6.41,-6.41z"/>
      <path class="fil0" d="M8.4 23.07c-0.73,-3.86 0.28,-5.98 2.9,-6.49 0.16,0.86 0.57,1.67 1.23,2.33 0.67,0.67 1.5,1.08 2.37,1.24 -0.5,2.64 -2.63,3.65 -6.5,2.92z"/>
      <path class="fil0" d="M22.99 24.88c0.99,5.27 -1.24,7.3 -6.41,6.41 -0.9,-5.17 1.14,-7.4 6.41,-6.41z"/>
      <path class="fil0" d="M22.99 23.07c0.73,-3.86 -0.28,-5.98 -2.9,-6.49 -0.16,0.86 -0.57,1.67 -1.23,2.33 -0.67,0.67 -1.5,1.08 -2.37,1.24 0.5,2.64 2.63,3.65 6.5,2.92z"/>
     </g>
     <path class="fil0" d="M17.58 23.98c-0.82,-0.44 -1.45,-1.08 -1.88,-1.91 -0.43,0.83 -1.06,1.47 -1.88,1.91 0.82,0.44 1.45,1.08 1.88,1.91 0.43,-0.83 1.06,-1.47 1.88,-1.91z"/>
    </g>
    <g>
     <g>
      <path class="fil0" d="M16.46 20.15c0.5,2.64 2.72,3.58 6.53,2.91 0.66,-3.8 -0.27,-6.01 -2.89,-6.52 -0.16,0.87 -0.57,1.7 -1.24,2.37 -0.68,0.68 -1.52,1.09 -2.4,1.24z"/>
      <path class="fil0" d="M16.46 11.35c0.5,-2.64 2.72,-3.58 6.53,-2.91 0.66,3.8 -0.27,6.01 -2.89,6.52 -0.16,-0.87 -0.57,-1.7 -1.24,-2.37 -0.68,-0.68 -1.52,-1.09 -2.4,-1.24z"/>
      <path class="fil0" d="M31.16 16.66c1,5.27 -1.24,7.3 -6.41,6.41 -0.9,-5.17 1.14,-7.4 6.41,-6.41z"/>
      <path class="fil0" d="M31.16 14.84c0.99,-5.27 -1.24,-7.3 -6.41,-6.41 -0.9,5.17 1.14,7.4 6.41,6.41z"/>
     </g>
     <path class="fil0" d="M25.75 15.75c-0.82,-0.44 -1.45,-1.08 -1.88,-1.91 -0.43,0.83 -1.06,1.47 -1.88,1.91 0.82,0.44 1.45,1.08 1.88,1.91 0.43,-0.83 1.06,-1.47 1.88,-1.91z"/>
    </g>
   </g>
   <circle class="fil0" transform="matrix(1.0942 -1.0942 1.0942 1.0942 15.6949 15.7485)" r="2.11"/>
   <circle class="fil0" cx="27.95" cy="3.49" r="1.73"/>
   <circle class="fil0" cx="27.95" cy="28" r="1.73"/>
   <circle class="fil0" cx="3.44" cy="3.49" r="1.73"/>
   <circle class="fil0" cx="3.44" cy="28" r="1.73"/>
   <g>
    <path class="fil1" d="M40.96 16.42l0 -10.14 2.11 0c0.74,0 1.29,0.04 1.65,0.11 0.35,0.08 0.66,0.21 0.91,0.39 0.32,0.24 0.57,0.55 0.75,0.92 0.18,0.38 0.27,0.79 0.27,1.24 0,0.54 -0.13,0.98 -0.39,1.34 -0.26,0.36 -0.63,0.61 -1.12,0.76 0.6,0.09 1.07,0.36 1.42,0.81 0.35,0.45 0.52,1.01 0.52,1.69 0,0.41 -0.07,0.79 -0.22,1.16 -0.15,0.37 -0.35,0.69 -0.61,0.95 -0.29,0.28 -0.64,0.48 -1.06,0.6 -0.42,0.12 -1.13,0.17 -2.12,0.17l-2.11 0zm1.18 -4.75l0 3.7 0.94 0c0.64,0 1.1,-0.03 1.39,-0.08 0.28,-0.05 0.51,-0.14 0.68,-0.26 0.21,-0.15 0.37,-0.35 0.49,-0.62 0.12,-0.26 0.18,-0.55 0.18,-0.87 0,-0.37 -0.07,-0.69 -0.22,-0.96 -0.14,-0.27 -0.35,-0.48 -0.62,-0.64 -0.16,-0.1 -0.35,-0.17 -0.56,-0.21 -0.21,-0.04 -0.54,-0.06 -0.99,-0.06l-0.35 0 -0.94 0zm0 -4.34l0 3.39 0.94 0c0.86,0 1.46,-0.13 1.81,-0.37 0.35,-0.25 0.53,-0.67 0.53,-1.26 0,-0.65 -0.16,-1.1 -0.49,-1.37 -0.32,-0.26 -0.94,-0.39 -1.85,-0.39l-0.94 0zm10.65 1.22l-1.61 3.73 3.23 0 -1.62 -3.73zm0 -2.67l4.61 10.54 -1.31 0 -1.32 -3.11 -3.96 0 -1.32 3.11 -1.3 0 4.59 -10.54zm7.31 10.54l0 -8.99 -2.87 0 0 -1.15 6.94 0 0 1.15 -2.85 0 0 8.99 -1.22 0zm6.08 0l0 -10.14 1.21 0 0 10.14 -1.21 0zm4.3 0l0 -10.14 1.19 0 0 4.51 4.26 -4.51 1.44 0 -4.35 4.57 4.78 5.58 -1.56 0 -4.57 -5.46 0 5.46 -1.19 0zm9.03 0l0 -10.14 1.21 0 0 8.99 3.83 0 0 1.15 -5.04 0zm7.11 0l0 -10.14 5.35 0 0 1.11 -4.14 0 0 2.91 4.14 0 0 1.12 -4.14 0 0 3.89 4.14 0 0 1.12 -5.35 0zm8.04 0l0 -10.54 7.42 8.1 0 -7.71 1.15 0 0 10.54 -7.42 -8.02 0 7.62 -1.15 0zm15.33 -5.63c0.66,0.28 1.16,0.66 1.49,1.12 0.34,0.47 0.5,1.02 0.5,1.66 0,0.93 -0.3,1.68 -0.89,2.25 -0.59,0.57 -1.38,0.86 -2.36,0.86 -0.8,0 -1.47,-0.2 -2.01,-0.61 -0.54,-0.41 -0.9,-0.99 -1.09,-1.74l1.09 -0.54c0.15,0.61 0.39,1.08 0.73,1.4 0.34,0.32 0.76,0.48 1.28,0.48 0.61,0 1.09,-0.18 1.47,-0.52 0.37,-0.35 0.56,-0.8 0.56,-1.36 0,-0.45 -0.13,-0.85 -0.39,-1.18 -0.26,-0.34 -0.65,-0.62 -1.18,-0.85l-1.23 -0.53c-0.67,-0.28 -1.18,-0.64 -1.51,-1.09 -0.33,-0.44 -0.5,-0.97 -0.5,-1.59 0,-0.72 0.27,-1.32 0.8,-1.79 0.54,-0.47 1.22,-0.71 2.05,-0.71 0.61,0 1.14,0.13 1.58,0.39 0.45,0.26 0.79,0.64 1.04,1.15l-1 0.64c-0.22,-0.39 -0.48,-0.68 -0.76,-0.87 -0.28,-0.19 -0.6,-0.29 -0.96,-0.29 -0.45,0 -0.83,0.14 -1.11,0.42 -0.29,0.28 -0.43,0.63 -0.43,1.06 0,0.36 0.11,0.67 0.33,0.93 0.22,0.27 0.57,0.5 1.03,0.7l1.45 0.64z"/>
    <path class="fil1" d="M41.2 24.8l0 -3.57 0.42 0 0 1.59 1.5 -1.59 0.51 0 -1.53 1.61 1.68 1.96 -0.55 0 -1.61 -1.92 0 1.92 -0.42 0zm3.68 0l0 -3.57 1.88 0 0 0.39 -1.46 0 0 1.02 1.46 0 0 0.39 -1.46 0 0 1.37 1.46 0 0 0.39 -1.88 0zm3.33 0l0 -3.71 2.61 2.85 0 -2.71 0.4 0 0 3.71 -2.61 -2.82 0 2.68 -0.4 0zm5.73 -2.77l-0.57 1.31 1.14 0 -0.57 -1.31zm0 -0.94l1.62 3.71 -0.46 0 -0.46 -1.09 -1.39 0 -0.46 1.09 -0.46 0 1.62 -3.71zm2.72 3.71l0 -3.57 0.42 0 0 3.17 1.35 0 0 0.4 -1.77 0zm3.01 0l0 -3.57 0.42 0 0 3.57 -0.42 0zm1.88 0.71l0.46 -1.33 0.42 0.14 -0.6 1.29 -0.28 -0.11zm3.81 -0.71l0 -3.57 0.42 0 0 1.59 1.5 -1.59 0.51 0 -1.53 1.61 1.68 1.96 -0.55 0 -1.61 -1.92 0 1.92 -0.42 0zm3.68 0l0 -3.57 0.84 0c0.24,0 0.41,0.01 0.52,0.04 0.11,0.03 0.21,0.07 0.29,0.14 0.11,0.08 0.19,0.19 0.25,0.33 0.06,0.14 0.09,0.29 0.09,0.46 0,0.29 -0.08,0.52 -0.24,0.67 -0.16,0.15 -0.4,0.23 -0.72,0.23l-0.08 0 1.36 1.7 -0.54 0 -1.3 -1.7 -0.06 0 0 1.7 -0.41 0zm0.41 -3.21l0 1.19 0.32 0c0.33,0 0.55,-0.04 0.67,-0.13 0.11,-0.09 0.17,-0.23 0.17,-0.45 0,-0.23 -0.06,-0.39 -0.17,-0.48 -0.12,-0.09 -0.34,-0.14 -0.66,-0.14l-0.32 0zm2.99 3.21l0 -3.57 1.88 0 0 0.39 -1.46 0 0 1.02 1.46 0 0 0.39 -1.46 0 0 1.37 1.46 0 0 0.39 -1.88 0zm4.46 -2.77l-0.57 1.31 1.14 0 -0.57 -1.31zm0 -0.94l1.62 3.71 -0.46 0 -0.46 -1.09 -1.39 0 -0.46 1.09 -0.46 0 1.62 -3.71zm4.02 1.73c0.23,0.1 0.41,0.23 0.52,0.39 0.12,0.16 0.18,0.36 0.18,0.58 0,0.33 -0.1,0.59 -0.31,0.79 -0.21,0.2 -0.49,0.3 -0.83,0.3 -0.28,0 -0.52,-0.07 -0.71,-0.22 -0.19,-0.14 -0.32,-0.35 -0.39,-0.61l0.39 -0.19c0.05,0.22 0.14,0.38 0.26,0.49 0.12,0.11 0.27,0.17 0.45,0.17 0.21,0 0.39,-0.06 0.52,-0.18 0.13,-0.12 0.2,-0.28 0.2,-0.48 0,-0.16 -0.05,-0.3 -0.14,-0.42 -0.09,-0.12 -0.23,-0.22 -0.42,-0.3l-0.43 -0.19c-0.24,-0.1 -0.41,-0.23 -0.53,-0.38 -0.12,-0.16 -0.17,-0.34 -0.17,-0.56 0,-0.25 0.09,-0.46 0.28,-0.63 0.19,-0.17 0.43,-0.25 0.72,-0.25 0.21,0 0.4,0.05 0.56,0.14 0.16,0.09 0.28,0.23 0.37,0.4l-0.35 0.22c-0.08,-0.14 -0.17,-0.24 -0.27,-0.31 -0.1,-0.07 -0.21,-0.1 -0.34,-0.1 -0.16,0 -0.29,0.05 -0.39,0.15 -0.1,0.1 -0.15,0.22 -0.15,0.37 0,0.13 0.04,0.24 0.12,0.33 0.08,0.09 0.2,0.17 0.36,0.25l0.51 0.22zm2 1.98l0 -3.57 0.42 0 0 3.57 -0.42 0zm1.88 0.71l0.46 -1.33 0.42 0.14 -0.6 1.29 -0.28 -0.11zm3.82 -0.71l0 -3.57 0.42 0 0 3.57 -0.42 0zm2.02 0l0 -3.71 2.61 2.85 0 -2.71 0.4 0 0 3.71 -2.61 -2.82 0 2.68 -0.4 0zm6.34 -0.3c0.19,0 0.38,-0.04 0.56,-0.11 0.18,-0.07 0.34,-0.18 0.48,-0.32 0.14,-0.14 0.25,-0.3 0.32,-0.48 0.07,-0.18 0.11,-0.37 0.11,-0.56 0,-0.2 -0.04,-0.39 -0.11,-0.57 -0.07,-0.18 -0.18,-0.34 -0.32,-0.48 -0.14,-0.14 -0.3,-0.25 -0.47,-0.32 -0.18,-0.07 -0.36,-0.11 -0.56,-0.11 -0.2,0 -0.39,0.04 -0.56,0.11 -0.18,0.07 -0.33,0.18 -0.47,0.32 -0.14,0.14 -0.25,0.3 -0.32,0.48 -0.07,0.18 -0.11,0.37 -0.11,0.57 0,0.2 0.04,0.39 0.11,0.56 0.07,0.18 0.18,0.33 0.32,0.48 0.14,0.14 0.3,0.25 0.48,0.32 0.17,0.07 0.36,0.11 0.56,0.11zm1.91 -1.47c0,0.26 -0.05,0.5 -0.14,0.72 -0.09,0.23 -0.23,0.43 -0.41,0.6 -0.18,0.18 -0.39,0.31 -0.62,0.41 -0.24,0.09 -0.48,0.14 -0.73,0.14 -0.25,0 -0.49,-0.05 -0.73,-0.14 -0.23,-0.1 -0.44,-0.23 -0.62,-0.41 -0.18,-0.18 -0.32,-0.38 -0.42,-0.61 -0.09,-0.23 -0.14,-0.47 -0.14,-0.72 0,-0.26 0.05,-0.5 0.14,-0.72 0.1,-0.23 0.23,-0.43 0.42,-0.61 0.18,-0.17 0.39,-0.31 0.62,-0.4 0.23,-0.09 0.48,-0.14 0.73,-0.14 0.25,0 0.5,0.05 0.73,0.14 0.23,0.09 0.44,0.23 0.62,0.4 0.18,0.18 0.32,0.38 0.41,0.6 0.09,0.23 0.14,0.47 0.14,0.73zm2.36 1.92l-1.51 -3.71 0.46 0 1.05 2.73 1.04 -2.73 0.46 0 -1.5 3.71zm3.65 -2.91l-0.57 1.31 1.14 0 -0.57 -1.31zm0 -0.94l1.62 3.71 -0.46 0 -0.46 -1.09 -1.39 0 -0.46 1.09 -0.46 0 1.62 -3.71zm4.02 1.73c0.23,0.1 0.41,0.23 0.52,0.39 0.12,0.16 0.18,0.36 0.18,0.58 0,0.33 -0.1,0.59 -0.31,0.79 -0.21,0.2 -0.49,0.3 -0.83,0.3 -0.28,0 -0.52,-0.07 -0.71,-0.22 -0.19,-0.14 -0.32,-0.35 -0.39,-0.61l0.39 -0.19c0.05,0.22 0.14,0.38 0.26,0.49 0.12,0.11 0.27,0.17 0.45,0.17 0.21,0 0.39,-0.06 0.52,-0.18 0.13,-0.12 0.2,-0.28 0.2,-0.48 0,-0.16 -0.05,-0.3 -0.14,-0.42 -0.09,-0.12 -0.23,-0.22 -0.42,-0.3l-0.43 -0.19c-0.24,-0.1 -0.41,-0.23 -0.53,-0.38 -0.12,-0.16 -0.17,-0.34 -0.17,-0.56 0,-0.25 0.09,-0.46 0.28,-0.63 0.19,-0.17 0.43,-0.25 0.72,-0.25 0.21,0 0.4,0.05 0.56,0.14 0.16,0.09 0.28,0.23 0.37,0.4l-0.35 0.22c-0.08,-0.14 -0.17,-0.24 -0.27,-0.31 -0.1,-0.07 -0.21,-0.1 -0.34,-0.1 -0.16,0 -0.29,0.05 -0.39,0.15 -0.1,0.1 -0.15,0.22 -0.15,0.37 0,0.13 0.04,0.24 0.12,0.33 0.08,0.09 0.2,0.17 0.36,0.25l0.51 0.22zm2 1.98l0 -3.57 0.42 0 0 3.57 -0.42 0z"/>
   </g>
  </g>
 </g>
</svg>
