<?xml version="1.0" encoding="UTF-8"?>
<!DOCTYPE svg PUBLIC "-//W3C//DTD SVG 1.1//EN" "http://www.w3.org/Graphics/SVG/1.1/DTD/svg11.dtd">
<!-- Creator: CorelDRAW -->
<svg xmlns="http://www.w3.org/2000/svg" xml:space="preserve" width="3.84421in" height="5.97243in" version="1.1" style="shape-rendering:geometricPrecision; text-rendering:geometricPrecision; image-rendering:optimizeQuality; fill-rule:evenodd; clip-rule:evenodd"
viewBox="0 0 368.27 572.15"
 xmlns:xlink="http://www.w3.org/1999/xlink"
 xmlns:xodm="http://www.corel.com/coreldraw/odm/2003">
 <defs>
  <style type="text/css">
   <![CDATA[
    .fil0 {fill:black}
   ]]>
  </style>
 </defs>
 <g id="Layer_x0020_1">
  <metadata id="CorelCorpID_0Corel-Layer"/>
  <path class="fil0" d="M197.18 0.81c22.82,0.69 40.85,19.38 50.25,38.51 1.51,3.07 2.39,4.02 4.4,6.7 1.74,2.32 2.79,4.19 4.48,6.61 5.49,7.86 10.36,22.64 12.39,31.99 1.43,6.58 2.83,11.65 3.48,18.71 0.38,4.16 0.68,5.78 1.63,9.47 0.74,2.92 2.09,5.94 1.05,8.74 1.58,1.21 1.3,-1.9 1.3,2.29 2.45,5.09 6.24,33.05 7.38,40.58 0.48,3.2 0.57,7.64 1.18,11.22 0.58,3.36 1.27,6.14 2.14,9.61 1.9,7.59 1.97,12.6 3.65,19.84 4.63,0 5.62,-0.7 9.29,-0.2l58.59 0.19c4.12,-0.02 5.83,0.66 9.13,0.66 0,7.41 1.46,14.62 0.28,22.47 -0.8,5.26 -0.28,61.45 -0.28,69.56l-0.64 58.1c0.02,4.55 -0.7,6.34 -0.68,11.07 0.04,6.35 0.61,16.77 -0.27,22.58 -1.67,11.02 -0.38,34.13 -0.38,46.61l-0.75 45.59c-1.5,13.35 -1.05,31.78 0.06,45.16 0.45,5.48 1.76,41.8 0.39,44.05 -1.2,1.96 -8.11,0.95 -10.79,0.95 -4.61,0 -7.48,-0.32 -11.13,-0.62 -7.61,-0.63 -15.79,0.69 -23.08,-0.41 -5.16,-0.78 -69.61,-0.33 -81.31,-0.27 -4.78,0.02 -6.8,-0.67 -11.07,-0.68 -15.43,-0.02 -30.98,0.24 -46.39,0.05 -5.7,-0.07 -15.5,-1.39 -22.72,-0.58 -21.05,2.36 -70.1,-1.89 -91.56,0.46 -15.93,1.74 -51.89,3.69 -64.52,0.75 -0.28,-3.37 -1.3,-4.19 -1.33,-8.46 -0.4,-46.8 0.68,-93.59 0.68,-140.35l-0.1 -93.43c0.65,-5.79 -0.36,-12.9 0.13,-18.8 0.57,-6.91 0.76,-28.58 -0.31,-35.66 -1.21,-8.02 -2.69,-56.89 -0.99,-64.2 0.75,-3.22 2.57,-2.39 6.28,-2.86l36.1 -1.75c42.1,0.16 37.73,3.08 38.49,-8.51 0.22,-3.36 0.47,-4.88 0.96,-8.18 4.14,-28.07 8.2,-52.36 13.8,-80.18 1.47,-7.3 6.41,-25.75 6.8,-30.4 1.01,-4.35 1.31,-10.07 3.12,-13.71 0.91,-8.56 4.91,-17.59 8.83,-24.59 1.41,-2.51 2.49,-4.96 3.71,-7.39 4.42,-8.84 6.61,-13.49 14.48,-18.81 2.35,-1.59 4.16,-2.91 6.83,-4.27 9.92,-5.05 22.02,-7.77 35.51,-8.87 7.41,-0.6 14.97,0.42 21.5,0.62zm-66.85 61.07c-4.06,22.76 -4.27,18.76 -5.6,43.35 -0.17,3.17 0.18,6.63 0.01,9.8l-1.98 37.18c-0.1,14.67 -4.55,47.35 -4.55,54.19 10.76,0.9 23.67,1.97 35.24,1.96 10.81,-0.01 24.77,1.14 35.8,-0.1l54.27 -1.86c3.05,0 6.11,0.02 9.16,0.02 4.65,0.01 4.41,-0.54 7.81,-1.33 0,-6.62 1.43,-13.01 0.38,-19.96 -0.53,-3.51 -0.1,-6.5 -0.46,-9.98 -0.31,-2.88 -1.69,-5.67 -0.57,-8.57 -1.95,-1.54 -1.59,-5.1 -2.54,-9.86 -5.99,-29.91 -10.95,-58.67 -15.37,-89.05 -3.35,-23.01 1.95,-23.44 -10.96,-35.38 -2.5,-2.32 -11.22,-8.92 -12.25,-11.25 -1.97,0.44 -0.99,0.53 -3.41,-1.13 -16.6,-11.35 -37.62,-17.28 -56.42,-7.8 -4.11,2.07 -9.3,4.23 -12.89,6.69 -1.99,1.36 -3.84,2.74 -5.46,4.33 -2.45,2.4 -2.44,2.77 -3.41,6.38 -2.75,10.26 -4.77,21.03 -6.79,32.37z"/>
 </g>
</svg>
