<?xml version="1.0" encoding="UTF-8"?>
<!DOCTYPE svg PUBLIC "-//W3C//DTD SVG 1.1//EN" "http://www.w3.org/Graphics/SVG/1.1/DTD/svg11.dtd">
<!-- Creator: CorelDRAW -->
<svg xmlns="http://www.w3.org/2000/svg" xml:space="preserve" width="4.34654in" height="7.98232in" version="1.1" style="shape-rendering:geometricPrecision; text-rendering:geometricPrecision; image-rendering:optimizeQuality; fill-rule:evenodd; clip-rule:evenodd"
viewBox="0 0 632.68 1161.9"
 xmlns:xlink="http://www.w3.org/1999/xlink"
 xmlns:xodm="http://www.corel.com/coreldraw/odm/2003">
 <defs>
  <style type="text/css">
   <![CDATA[
    .fil0 {fill:black}
   ]]>
  </style>
 </defs>
 <g id="Layer_x0020_1">
  <metadata id="CorelCorpID_0Corel-Layer"/>
  <path class="fil0" d="M362.74 1159.49c-0.91,-0.3 -2.37,-0.89 0,0zm-90.3 -1099.01c-0.44,-1.56 0.2,-0.73 0,0zm270.99 58.81c-1.02,4.96 -2.26,14.12 -2.61,17.65 -2.61,26.5 -5.12,48.93 2.06,72.14 6.77,21.85 -30,156.73 -42.8,188.31 -7.65,18.87 -11.27,50.1 -7.94,68.59 1.26,7.02 3.71,6.75 8.42,11.8 20.65,22.14 44.91,85.84 53.68,120.16 5.36,20.98 10.95,42.16 14.59,64.24 3.64,22.09 9.81,42.09 14.3,64.54l30.14 204.34c1.99,19.09 8.09,27.29 12.13,64.68 4.91,45.4 15.94,50.32 -5.23,57.42 -29.55,9.92 -12.33,6.14 -44.84,13.78 -5.81,1.37 -8.15,1.56 -16.63,1.56 0,20.68 2.02,33.63 2.02,54.58 -27.66,6.44 -4.19,17.08 -68.84,12.24 -20.56,-1.54 -20.57,4.39 -24.15,-4.15 -14.15,5.46 -42.45,-3.5 -58.63,-2.18 -21.93,1.79 -11.31,37.47 -32.33,28.46 -3.01,3.96 -3.01,6.27 -12.43,2.66 -0.67,-0.26 -1.19,-0.46 -1.61,-0.61 0.74,0.24 1.11,0.28 -1.21,-0.84l-6.99 -3.24c0,-11.95 1.13,-24.69 -2.02,-33.6 -26.33,1.73 10.54,-12 -53.3,8.61 -5.04,1.63 -9.46,2.46 -13.99,4.21 -8.24,3.19 -22.84,13.22 -39.85,6.65 -3.59,5.42 4.23,3.14 -10.04,4.4 -8.45,0.75 -20.7,-2.75 -28.37,-6.43 0,-9.2 0.04,-15.48 -2.02,-22.23 -9.42,3.64 -28.77,-1.63 -43.37,1.09 -11.43,2.12 -29.49,8.52 -39.5,5.33 -3.93,5.42 0.63,1.71 -6.17,3.51l-19.63 -0.31c-1.79,-0.25 -8.02,-1.5 -11.87,-2.31l-10.48 -3.27c-10.48,-2.57 -8.95,-5 -6.4,-13.83 1.3,-4.5 3.29,-11.46 4.01,-16.5 1.08,-6.83 0.63,-4.3 2.02,-10.1 -11.14,0 -2.8,0.9 -6.06,-4.03 -7.37,2.85 -16.52,0.61 -25.14,-1.15 -5.05,-1.03 -6.96,-1.51 -11.02,-3.27 -3.91,-1.69 -2.78,-1.83 -6.3,-3.67 -5.06,-2.06 -9.24,-3.72 -14.14,-6.06 0,-19.25 2.88,-29.09 4.07,-44.71 1.31,-17.19 -17.91,-32.62 -14.58,-54.56 4.59,-30.28 8.36,-50.97 16.58,-80.63 1.79,-6.45 3.2,-11.8 5.33,-18.92l41.22 -150.81c3.16,-12.42 4.4,-27.51 7.17,-41.35 7.03,-35.13 19.76,-78.62 33.45,-112.09 5.59,-13.66 37.76,-87.34 52.3,-91.22 -2.13,-9.13 -0.81,-38.73 -2.02,-52.56 -0.68,-7.77 -4.64,-13.26 -7.55,-20.75l-23.4 -89.8 -5.71 -50.89c-1.34,-7.85 -2.64,-15.6 -3.89,-24.41l-5.94 -165.87c-2.01,-14.04 -6.06,-25.88 -6.06,-42.46l25.27 -7.07c22.82,-7.44 36.9,-18.83 46.41,-8.04 5.22,5.92 0.73,3.84 13.72,16.63 3.15,3.1 5.1,4.91 8.03,8.14 28.36,31.29 60.06,24.2 73.87,29.62 2.38,0.94 3.12,0.4 3.28,-0.21 0.18,0.65 0.55,1.71 1.24,3.36 11.48,-4.43 44.77,-2.62 60.36,-1.71 7.34,0.43 2.61,0.5 9.01,0.14 8.02,-0.45 15.5,-0.45 23.61,-0.45 20.14,-2.88 41.01,-6.8 58.66,-12.1 9.68,-2.9 15.68,-7.01 25.12,-11.27 8.89,-4.01 13.23,-8.16 20.52,-13.85 45.02,-35.18 25.35,-26.5 70.02,-11.77 8.17,2.69 19.2,5.38 25.81,8.55 -0.59,7.03 -3.35,13.32 -5.27,21.01 -1.9,7.61 -3.29,12.7 -4.7,19.56l-7.12 31.14c-3.42,10.45 1.5,3.89 -5.14,9.14 3.02,8.1 0.66,8.28 -1.14,17.03z"/>
 </g>
</svg>
