<?xml version="1.0" encoding="UTF-8"?>
<!DOCTYPE svg PUBLIC "-//W3C//DTD SVG 1.1//EN" "http://www.w3.org/Graphics/SVG/1.1/DTD/svg11.dtd">
<!-- Creator: CorelDRAW -->
<svg xmlns="http://www.w3.org/2000/svg" xml:space="preserve" width="6.42939in" height="6.84585in" version="1.1" style="shape-rendering:geometricPrecision; text-rendering:geometricPrecision; image-rendering:optimizeQuality; fill-rule:evenodd; clip-rule:evenodd"
viewBox="0 0 1054.49 1122.8"
 xmlns:xlink="http://www.w3.org/1999/xlink"
 xmlns:xodm="http://www.corel.com/coreldraw/odm/2003">
 <defs>
  <style type="text/css">
   <![CDATA[
    .fil0 {fill:black}
   ]]>
  </style>
 </defs>
 <g id="Layer_x0020_1">
  <metadata id="CorelCorpID_0Corel-Layer"/>
  <path class="fil0" d="M55.14 891.71c0.85,2.39 -0.7,-1.66 0,0zm-33.94 -351.58c-0.3,0.15 0.01,-0.09 0,0zm710.3 -447.71c2.68,1.14 4.23,2.35 6.83,3.62l47.74 25.44c2.85,1.07 4.64,2.05 7.48,2.98 1.22,0.4 2.64,0.91 3.86,1.36 1.37,0.51 2.42,0.68 4.08,1.14 1.55,0.44 2.51,0.88 3.93,1.3 8.83,2.6 20.18,4.03 29.64,6.95 7.79,2.41 7.31,1.92 15.76,5.15l34.37 17.9c3.38,2.87 7.16,7.93 9.31,11.6 1.02,1.75 3.16,4.57 3.65,6.24 0.54,1.14 0.92,1.57 1.4,2.49 0.46,0.87 0.68,1.61 1.14,2.65 0.74,1.66 1.32,4.01 2.21,5.12 0.14,2.05 0.35,1.76 0.83,3.26 0.38,1.18 0.48,1.74 0.88,2.91 0.72,2.11 1.63,3.09 2.09,4.98 1.04,0.85 1.51,1.84 2.28,3.01 5.65,8.55 8.76,12.93 11.71,23.45 1.49,5.33 3.02,10.21 4.19,15.77 2.96,13.97 8.04,33.92 12.07,47.8 0.83,2.86 1.45,4.84 2.27,7.71 2.86,10.1 4.24,12.7 7.58,22.36 4.5,12.99 6.99,15.3 10.37,29.55 2.34,9.87 3.72,33.87 3.7,46.2 -0.02,13.78 2.33,31.67 5.51,44.39l4.95 15.11 0.78 1.02c6.55,10.33 5.26,9.66 14.79,18.47 10.76,9.95 12.78,16.84 17.7,30.3 2.16,5.9 5.69,13 11.12,16.63 1.16,1.06 1.58,1.47 2.99,2.51 1.28,0.94 2.11,1.5 3.08,2.72 1.45,0.43 2.31,1.27 3.37,2.24 5.19,4.74 6.42,8.28 7.94,9.64 0.26,1.78 1.81,4.31 2.34,6.69 0.58,2.59 1.11,5 1.74,7.77 1.23,5.43 2.03,10.87 3.05,16.16l3.37 16.39c0.81,3.84 3.29,13.19 3.29,16.41 1.41,1.6 5.14,28.05 5.38,29.58 1.59,10.58 1.31,22.11 2.23,32.91l0 4.15 0 14.43c0,5.04 -0.48,8.24 -0.48,13.28l-0.47 40.39c0,17.42 -1.6,17.47 -4.23,29.98 -0.45,2.12 -0.93,3.24 -1.47,5.18l-2.3 7.68c-0.28,0.82 -0.24,0.76 -0.53,1.38 -0.34,0.72 -0.21,0.49 -0.54,0.92 0.03,2.29 -9.07,29.16 -10.76,33.86 -1.11,3.1 -11.2,35.97 -7.25,35.99 2.04,12.94 12.12,1.99 5.27,35.2 -0.68,3.28 -1.58,5.96 -2.41,8.99 -0.81,2.94 -2.22,5.05 -2.39,8.54 -0.29,6.03 2.63,13.76 -0.8,19.02 -0.29,1.38 -0.54,1.74 -0.88,3.06 -0.37,1.45 -0.2,1.58 -0.69,2.78 0,3.89 0.06,5.9 0.56,9.28 4.3,29.12 -7.61,38.55 -12.92,53.94 0.8,2.11 1.26,2.56 3.04,3.93l14.57 11.1c3.28,2.72 -0.85,6.56 -4.31,11.43 -3.55,5 -6.66,10.22 -10.17,15.49l-29.12 46.91c-0.99,1.87 -1.36,2.54 -2.44,4.21 -4.73,7.24 -10.52,22.85 -16.72,27 -2.46,-0.57 -1.38,-1.16 -3.81,-1.44 -3.28,-0.38 -7.45,1.47 -13.29,1.45 -16.07,-0.07 -27.85,-0.51 -43.05,-6.39 -2.13,-0.82 -5.04,-1.71 -6.75,-2.65 -10.46,-4.88 -15.16,-6.58 -25.26,-12.39l-4.5 -2.63c-9.32,-6.31 -16.06,-10.16 -22.83,-21.37 -2.93,-4.84 -4.64,-8.68 -8.24,-14.09 -1.29,-1.94 -2.03,-2.26 -3.38,-4.17 -0.21,-1.88 -0.6,-1.19 -0.01,-2.79 0.13,-0.35 0.69,-1.25 0.89,-1.48 0.72,-0.83 0.24,-0.43 0.97,-0.76l0.09 -0.24 16.48 -42.3c0.78,-2.14 1.45,-3.35 2.26,-5.82l7.08 -18.1c2.26,-6.38 5.02,-11.82 7.29,-17.42 0.91,-2.25 1.71,-3.69 2.82,-5.74l2.08 -4.1c0.4,-0.64 -0.25,-0.12 0.87,-1.17 1.08,-3.46 4.48,-2.33 6.05,-3.79 1.21,-1.13 1.02,-4.93 2.98,-6.25 1.95,-4.93 10.17,-13.11 14.8,-16.84 0.97,-0.78 1.28,-1.27 2.31,-2 1.01,-1.44 2.22,-2.28 3.34,-3.76 2.96,-3.9 4.39,-6.69 6.78,-10.83l1.29 -1.59c0.49,-2.97 2.25,-5.11 3.27,-7.6 1.96,-4.83 4.08,-11.32 4.34,-16.57 0.16,-3.24 -0.26,-6.64 0.19,-9.79 1.6,-11.07 7.13,-27.46 3.6,-35.97l-5.41 -17.27c-0.71,-2.13 -0.92,-3.88 -1.37,-6.23 -0.79,-4.06 -0.74,-9.24 -1.85,-13.36 -0.92,-3.4 -3.11,-6.6 -4.54,-10.19 -1.53,-3.83 -2.29,-7.61 -3.79,-11.42 -3.36,-8.54 -7.29,-9.68 -14.88,-15.06 -3.83,-2.72 -4.9,-3.05 -7.6,-7.14 -1.8,-3.7 -1.73,-6.98 -0.67,-11.58 0.55,-2.38 2.09,-8.26 3.52,-10.24 0.99,-4.36 11.32,-24.68 14.3,-37.05 0.41,-1.69 1.18,-3.71 1.38,-5.46 1.09,-6.07 2.93,-13.77 2.85,-20.72 -0.05,-4.19 0.86,-7.09 0.41,-11.35 -0.59,-5.64 -1.63,-6.2 -2.32,-9.09 -0.54,-0.63 -0.52,-0.63 -0.96,-1.42 -0.28,-0.51 -0.32,-0.65 -0.63,-1.29 -0.45,-0.91 -0.63,-1.54 -1.26,-2.06l-1.45 -2.82c-5.54,-9.28 -10.8,-20.21 -16.46,-29.61l-4.84 -8.94c-0.77,-1.92 -1.37,-3.01 -2.29,-4.84 -0.9,-1.8 -1.36,-3.16 -2.11,-5.01l-11.82 -22.4c-0.65,-1.97 -1.39,-3.37 -2.18,-5.42 -2.25,-5.89 -2.72,-9.54 -6.38,-14.82 -5.23,-4.84 -19.41,-7.35 -21.38,-10.21 -1.82,-0.35 -2.75,-1.22 -4.34,-1.86 -1.31,1.34 -0.95,1.38 -0.92,3.77 0.02,1.52 0.03,3.03 0.03,4.55 0,13.54 0.62,43.5 0,54.88 -0.59,10.84 -0.48,15.9 -0.48,27.08 0,5.05 -0.48,8.25 -0.48,13.31 0,4.19 0.52,9.71 -0.48,13.1 0,4.5 0.46,9.42 -0.2,13.78l-2.25 32.44c-0.16,1.49 -0.33,4.15 -0.6,6.05l-2.2 18.71c-0.26,1.8 -0.38,3.91 -0.71,5.95l-3.07 24.81 0.48 26.29c0.07,1.38 -0.08,2.9 -0,4.28 0.49,9.39 2.39,18.41 3.93,27.43 0.3,1.77 1.24,5.08 1.3,7.03 0.25,3.59 0.95,5.95 0.95,10.29 0.97,3.8 1.02,21.93 1.9,23.59l0 8.63c1.05,0.34 0.14,10.89 0.75,14.93 0.66,4.34 0.21,10.85 0.2,15.48l0.68 31.16c0.75,4.93 0.28,10.7 0.28,15.88l0.49 15.19c0.08,2.58 -0.2,5.54 0.01,8.07l3.02 52.1 0.02 0.17 0.01 0.04 0.02 0.15 0.01 0.09 0.02 0.12 0.02 0.14 0.01 0.08 0.03 0.2 0 0.03 0.03 0.25 0 0.02 0.03 0.24 0.01 0.08 0.03 0.2 0.02 0.15 0.02 0.14 0.03 0.22 0.01 0.08 0.04 0.3 0 0.02 0.04 0.33 0.01 0.05 0.04 0.29 0.02 0.13 0.03 0.22 0.03 0.21 0.02 0.15 0.04 0.3 0.01 0.07 0.05 0.38 0 0.01 0.05 0.38 0.01 0.1 0.04 0.3 0.02 0.19 0.03 0.22 0.03 0.28 0.02 0.14 0.05 0.38 0.01 0.05 0.05 0.43 0.01 0.05 0.05 0.39 0.02 0.14 0.04 0.3 0.03 0.24 0.02 0.21 0.04 0.34 0.01 0.11 0.05 0.45 0 0.01 0.05 0.46 0.01 0.09 0.04 0.38 0.02 0.19 0.03 0.28 0.03 0.29 0.02 0.18 0.04 0.4 0.01 0.08 0.05 0.48 0 0.03 0.05 0.45 0.01 0.13 0.04 0.35 0.02 0.23 0.03 0.25 0.03 0.34 0.01 0.14 0.04 0.44 0 0.04 0.05 0.48 0.01 0.06 0.04 0.42 0.02 0.17 0.03 0.31 0.03 0.27 0.02 0.21 0.03 0.37 0.01 0.1 0.04 0.47 0 0 0.04 0.47 0.01 0.1 0.03 0.36 0.02 0.2 0.02 0.26 0.02 0.29 0.01 0.16 0.03 0.39 0.01 0.06 0.03 0.44 0 0.03 0.03 0.4 0.01 0.13 0.02 0.3 0.01 0.22 0.01 0.2 0.02 0.3 0.01 0.11 0.02 0.38 0 0.02 0.02 0.4 0 0.06 0.02 0.32 0.01 0.14 0.01 0.23 0.01 0.22 0.01 0.15 0.01 0.29 0 0.07 0.01 0.34 0 0.01 0.01 0.32 0 0.08 0 0.24c0.02,1.45 -0.04,2.51 -0.23,2.96 -0.81,2 -3.21,2.25 -5.34,2.76 -8.72,2.07 -34.8,5.12 -47.73,7.39 -12.18,2.15 -25.09,6.14 -35.53,12.46 -3.35,2.03 -6.67,3.82 -9.91,5.77l-20.13 11.71c-10.67,6.37 -33.09,13.67 -41.26,21.94 -15.29,15.48 -20.41,17.7 -45.5,17.7 -10.49,0 -20.97,0 -31.46,0 -2.92,0 -6.42,0.6 -9,0.88l-68.84 0.07c-0.28,-0.53 -0.69,-1.67 -0.87,-1.98 -0.72,-1.25 0.1,-0.59 -1.23,-1.35 -5.02,-1.46 -20.88,0.33 -26.02,0.87 -8.92,0.93 -17.21,0.98 -27.01,1.03 -4.67,0.02 -8.58,-0.49 -13.79,-0.47 -4.25,0.02 -8.67,-0.86 -12.82,-0.96 -10.62,-0.26 -24.85,-3.56 -34.89,-7.4 -7.63,-2.92 -12.33,-4.6 -19.26,-8.78 -10.26,-6.19 -11.46,-7.12 -22.67,-12.5 -5.78,-2.78 -20.97,-8.38 -24.25,-10.29 -7.11,-2.46 -21.41,-8.96 -28.65,-11.89 -16.69,-6.75 -19.18,-7.95 -36.98,-12.44l-14.11 -3.95c-2.91,-0.95 -7.47,-2.7 -11.67,-4.98l-0.14 -0.08 -0.31 -0.17 -0.11 -0.06 -0.01 -0.01 -0.33 -0.19 -0.08 -0.05 -0.04 -0.02 -0.33 -0.19 -0 -0 -0.05 -0.03 -0.17 -0.1 -0.22 -0.13 -0.02 -0.01 -0.2 -0.12 -0.21 -0.13 -0.01 -0.01 -0.22 -0.13 -0.17 -0.11 -0.04 -0.03 -0.21 -0.14 -0.14 -0.09 -0.07 -0.04 -0.21 -0.14 -0.11 -0.07 -0.01 -0.01 -0.3 -0.21 -0.15 -0.1 -0.04 -0.03 -0.2 -0.14 -0.05 -0.04 -0.01 -0.01 -0.33 -0.24 -0.03 -0.02 -0.04 -0.03 -0.24 -0.18 -0.09 -0.07 -0 -0 -0.19 -0.15 -0.16 -0.13 -0.03 -0.02 -0.32 -0.25 -0 -0 -0.3 -0.24 -0.04 -0.03 -0.07 -0.06 -0.22 -0.19 -0.03 -0.03 -0.09 -0.08 -0.22 -0.2 -0 -0 -0.28 -0.26 -0.03 -0.03 -0.02 -0.02 -0.27 -0.26 -0.01 -0.01 -0.01 -0.01 -0.28 -0.28 -0.01 -0.01 -0.24 -0.26 -0.01 -0.01 -0.03 -0.04 -0.22 -0.25 -0.02 -0.02c-0.16,-0.19 -0.31,-0.38 -0.45,-0.57l-0.05 -0.07 -0.16 -0.22 -0.03 -0.04 -0.02 -0.03 -0.18 -0.26 -0.01 -0.01 -0 -0c-0.06,-0.1 -0.12,-0.2 -0.18,-0.3l-0.01 -0.01 -0 -0.01c-0.05,-0.09 -0.1,-0.18 -0.15,-0.27l-0.02 -0.03 -0.02 -0.03 -0.12 -0.24 -0.03 -0.07c-0.04,-0.09 -0.08,-0.17 -0.12,-0.26l-0.02 -0.05c-0.04,-0.09 -0.08,-0.19 -0.11,-0.28l-0.01 -0.03c-0.04,-0.1 -0.07,-0.19 -0.1,-0.29l-0.01 -0.03c-0.03,-0.1 -0.06,-0.2 -0.09,-0.3l-0 -0.01c-0.03,-0.1 -0.05,-0.21 -0.07,-0.31 -0.62,-2.25 -0.47,-3.48 -0.47,-6.3 0,-5.24 0.55,-8.25 0.91,-12.58 1.76,-21.24 6,-25.71 9.51,-42.76 4.17,-20.27 0.99,-19.97 0.99,-36.03 0,-3.78 -0.28,-8.73 0.03,-12.38 0.25,-3.05 0.83,-7.83 0.92,-10.96 0.24,-7.57 0.92,-15.36 0.95,-23.29 0.03,-7.44 -0.98,-15.85 -0.95,-23.28l-0.49 -11.87c-0.01,-4.26 0.01,-7.89 -0.39,-11.49 -0.82,-7.3 0.52,-16.66 -0.09,-24.14 -0.94,-11.33 -0.49,-45.62 -0.47,-59.92 0,-2.75 0.43,-3.24 0.51,-5.67 0.05,-1.84 -0.14,-3.88 0.01,-5.69 0.92,-11.47 7.45,-36.54 6.36,-41.58 -1.03,-4.79 -1.92,-5.07 -3.71,-8.65 -4.22,-8.42 0.61,-21.68 -0.31,-32.96 -0.13,-1.56 -0.79,-3.3 -1.26,-4.92 -2.37,-8.17 -2.72,-18.05 -3.46,-26.95 -0.35,-4.28 -0.24,-56.11 0.7,-58.9 0.61,-3.35 0.11,-7.02 0.21,-10.47 0.07,-2.35 0.44,-2.37 0.51,-4.72l-0.02 -25.68c0,-13.5 -1.43,-25.95 -1.43,-39.38l0 -8.73 0 -18.42 0 -5.22c-3.67,0.08 -6.28,3.54 -8.48,5.3 -9.04,7.24 -12,18.05 -18.58,28.94 -0.88,1.47 -1.57,2.73 -2.43,4.23l-16.14 23.78c-3.63,2.76 -4.13,10.51 -5.32,15.59 -0.67,2.87 -1.26,5.36 -2.12,8.34 -0.83,2.86 -1.29,5.12 -2.54,7.78 -0.13,1.08 -1.04,3.9 -1.37,4.95 -0.57,1.87 -1.02,3.03 -1.59,5.06 -0.68,2.45 -2.21,7.55 -2.27,10.59 0,2.45 -0.16,5.06 0.26,7.31 0.44,2.42 1.12,3.76 1.17,6.21 0.82,0.59 0.99,1.52 1.38,2.64 2.37,6.81 6,14.19 6.25,21.81 0.19,5.72 -1.15,9.35 -2.58,13.61 -1.49,4.44 -1.19,9.36 -2.41,13.49 -0.38,1.81 -0.52,3.42 -1.2,4.62 -0.81,3.95 -1.99,7.19 -2.95,10.96 -0.81,3.16 -1.91,7.34 -2.32,10.99 -0.2,1.83 -0.32,4.36 -0.63,6.49 -0.33,2.26 -0.11,4.07 -0.34,6.32 -0.35,3.46 -4.72,16.72 -6.06,21.03 -1.06,3.42 -2.21,6.66 -3.19,10.12l-5.42 21.24c-0.91,5.59 -3.41,13.08 -0.95,19.43 0.07,1.79 1.41,4.77 1.91,6.65 2.37,8.93 0.5,13.79 -3.17,21.07 -1.58,3.13 -7.9,22.6 -8.24,26.37 0,5.48 0.01,8.98 0.9,13.44l4.89 23.62c0.72,2.87 2.15,8.15 2.33,11.49l0.26 0.67c0.03,0.1 0.08,0.24 0.12,0.35 0.03,0.11 0.07,0.25 0.1,0.37l1.76 9.16c0.79,3.41 1.3,7.1 1.96,10.39 2.53,12.55 5.38,31.24 6.61,43.28 0.57,5.58 -0.5,14.14 2.66,15.87 1.91,1.04 2.9,0.44 3.68,2.59 2.27,1.93 9.97,18.58 11.92,23.15l5.57 12.01c0.95,1.93 1.69,3.78 2.69,5.87 1.01,2.1 1.9,3.55 2.81,5.75l11.61 23.55c1.95,3.9 3.67,7.79 5.85,11.73 1.39,2.51 4.85,9.11 5.08,12.11 0.07,0.09 0.14,0.22 0.18,0.27 0.03,0.06 0.14,0.21 0.18,0.28 0.06,0.1 0.27,0.46 0.33,0.59 1.39,2.84 1.26,5.82 0.22,8.71l-0.19 0.51 -0.01 0.03 -0.02 0.06 -0.18 0.44 -0.01 0.02c-0.07,0.17 -0.14,0.34 -0.21,0.51l-0.01 0.01 -0.02 0.04c-0.14,0.33 -0.29,0.65 -0.44,0.97l-0.01 0.02 -0.01 0.01 -0.01 0.01c-0.16,0.33 -0.32,0.65 -0.49,0.97l-0.01 0.01 -0 0 -0.21 0.4 -0.05 0.09 -0.25 0.45 -0.02 0.04 -0 0.01 -0.28 0.47 -0 0.01 -0.01 0.02 -0.08 0.13 -0.16 0.27 -0.04 0.06 -0.29 0.46 -0.01 0.01 -0 0 -0.01 0.01 -0.25 0.38 -0.05 0.08 -0.03 0.05 -0.26 0.39 -0.02 0.02 -0.3 0.42 -0.03 0.04 -0.02 0.03 -0.03 0.03 -0.25 0.35 -0.03 0.05 -0.02 0.02 -0.32 0.43 -0 0.01c-5.37,7 -13.41,12.19 -21.03,16.35 -3.36,1.83 -22.7,12.13 -26.07,11 -0.82,1.3 0.03,0.4 -1.15,1.2 -0.08,0.06 -1.38,0.56 -1.39,0.56l-8.28 2.51 -11.58 2.78c-4.9,0.77 -15.05,3.37 -19.41,2.74l-5.7 1.13c-2.5,0.11 -3.85,0.19 -5.77,0.41 -7.13,0.8 -27.54,1.57 -30.43,-6.58 -0.7,-0.59 -1.03,-1.25 -1.7,-2.01 -4.74,-5.37 -7.86,-5.29 -11.39,-13.8 -0.79,-1.9 -7.11,-19.35 -7.25,-21.51 -0.95,-0.89 -2.09,-4.24 -2.38,-5.46l-2.06 -4.1c-0.76,-1.5 -1.11,-2.53 -1.75,-3.96l-10.58 -24.58c-3.33,-8.46 -10.37,-19.06 -8.02,-25.86 0.81,-2.35 2.56,-5.87 4.35,-7.06 0.5,-1.88 2.33,-3.11 3.85,-4.7 0.07,-0.07 0.17,-0.17 0.23,-0.24l0.49 -0.46c0.44,-0.41 0.54,-0.47 1,-0.9 0.91,-0.86 1.04,-1.11 2.03,-1.77l0 -2.21c-0.35,-3.05 -1.44,-5.02 -2.31,-7.36 -0.89,-2.4 -1.59,-4.76 -2.45,-7.06 -1.51,-4.06 -2.37,-11.02 -2.37,-16.64 -0.13,-2.13 -0.2,-2.19 -1.29,-3.47 -4.06,-4.75 -10.15,-11 -4.82,-18.79 1.79,-2.62 5.63,-4.16 8.22,-7.94 2.46,-3.58 2.64,-7.31 2.64,-13.07l-0.3 -0.63c-0.07,-0.17 -0.13,-0.31 -0.18,-0.43 -0.03,-0.08 -0.06,-0.16 -0.09,-0.24 -3.85,-10.74 -5.78,-8.82 -8.94,-12.81 -11.91,-9.82 -15.51,-18.81 -18.41,-33.5 -1.97,-10 -4.37,-10.27 -6.91,-18.75 -1.76,-5.88 -1.9,-17.03 -3.67,-22.36 0,-2.49 -0.63,-4.3 -1.02,-6.69 -0.69,-4.15 -2.78,-17.79 -2.78,-21.4 -0.33,-0.56 -0.09,0.03 -0.46,-1.01l-0.46 -2.4c-0.16,-1.9 -0.17,-2.36 -0.43,-3.85l-9.49 -73.2c-1.29,-10.08 -2.46,-28.75 -2.46,-38.4 0,-29.18 -0.53,-32.91 4.41,-61.65 0.78,-4.56 1.91,-9.09 2.84,-13.79l3.2 -12.96c0.7,-2.12 1.25,-4.48 1.9,-6.65l5.35 -15.09c0.01,-0.03 0.49,-1.21 0.56,-1.34 0.75,-1.44 0.26,-0.59 0.75,-1.07 0.25,-1.16 0.5,-1.77 1.05,-2.8 0.22,-0.41 0.49,-0.86 0.81,-1.21 0.23,-0.26 0.3,-0.37 0.3,-0.41 0.12,-0.06 0.33,-0.18 0.68,-0.4 -0.39,-1.62 -0.37,-0.69 0.43,-2.39 4.78,-10.12 10.06,-15.8 17.04,-23.39 1.47,-1.59 1.13,-2.06 3.05,-3.21 0.87,-1.57 1.59,-1.86 2.36,-4.21 0.49,-1.5 0.86,-3.12 1.42,-4.76 0.52,-1.53 0.84,-3.3 1.3,-4.88 0.46,-1.58 0.99,-3.24 1.43,-4.74 0.96,-3.28 1.6,-6.34 2.59,-9.76 6.53,-22.58 8.53,-41.42 13.53,-61.55 2.25,-9.05 3.39,-12.47 7.45,-20.59 1.89,-3.8 6.06,-9.25 8.66,-12.72 8.16,-10.9 8.08,-9.93 15.26,-21.81l10.82 -20.54c0.76,-1.85 1.1,-2.55 1.94,-4.24 3.82,-7.59 8.71,-18.02 12.78,-24.76 5.37,-8.89 9.29,-11.89 15.44,-22.1 5.28,-8.75 11.08,-24.19 15.38,-34.04 1.38,-3.03 2.45,-5.62 3.67,-8.69l7.06 -17.67 2.79 -9.54c0.93,-3.04 1.94,-6.22 3.11,-9.24 3.56,-9.21 3.44,-8.62 7.67,-16.36 1.04,-2.13 3.49,-5.46 4.9,-7.19l12.1 -22.11c1.68,-3.61 5.85,-13.44 7.44,-15.85 2.97,-4.5 8.64,-6.77 13.33,-9.48 8.11,-4.67 14.32,-8.19 23.19,-11.5 14.58,-5.43 28.97,-6.83 40.4,-10.92 1.34,-0.48 2.46,-0.96 4.17,-1.54 6.73,-2.26 24.92,-10.5 32.01,-14.08l47.05 -22.33c6.65,-3.27 25.46,-10.66 32.6,-13.02l8.68 -2.73c2.34,-0.75 5.88,-2.24 8.83,-2.32 1.8,-0.85 9.08,-2.33 11.49,-2.38 1.28,-0.99 7.86,-1.11 9.83,-1.9 3.95,-0.38 8.86,-7.68 10.8,-10.9l8.05 -13.23c0.53,-2.51 2.2,-5.3 3.66,-7.09 -0,-0.02 0.04,-0.08 0.14,-0.18 0.59,-2.44 4.79,-9.89 6.43,-12.06 1.03,-1.36 1.68,-2.12 2.87,-3.31 2.82,-2.8 10.88,-9.16 15.4,-9.06l6.65 -2.63c15.46,-3.83 24.56,-1.4 33.01,-2.67l43.98 0.29c13.2,0 34.89,-2.33 47.47,4.75 1.96,0.44 5.09,1.94 6.68,2.87 1.68,0.98 4.09,2.17 5.59,3.44 3.64,3.09 5.35,6.14 7.74,10.25 2.56,3.27 5.57,10.29 7.61,14.33l9.03 18.53c1.3,2.52 4.55,7.73 6.57,9.59 2.23,2.04 12.83,5.35 15.59,5.62 4.06,1.62 11.99,3.48 16.04,5.03 1.49,0.57 2.57,0.74 4.03,1.2 1.19,0.38 2.74,0.91 3.92,1.31l7.85 2.61c2.7,0.9 4.82,1.84 7.57,2.88 2.54,0.96 5.09,2.04 7.33,3.13 1.24,0.6 2.26,0.94 3.65,1.58 1.39,0.65 2.26,1.16 3.55,1.68 2.64,1.07 4.45,2.08 7.2,3.26z"/>
 </g>
</svg>
